<?xml version="1.0" encoding="utf-8" ?><svg xmlns="http://www.w3.org/2000/svg" xmlns:xlink="http://www.w3.org/1999/xlink" width="1536" height="1024" viewBox="0 0 1536 1024"><defs><linearGradient id="gradient_0" gradientUnits="userSpaceOnUse" x1="673.46094" y1="621.01581" x2="924.09454" y2="304.93335"><stop offset="0" stop-color="#A09FA5"/><stop offset="1" stop-color="white"/></linearGradient></defs><path fill="url(#gradient_0)" d="M756.025 100.775C763.237 99.9041 772.355 98.9308 779.347 101.348C791.286 104.298 800.578 111.685 806.825 122.264C808.746 125.567 810.271 129.084 811.368 132.743C814.109 140.609 813.826 150.601 811.253 158.45C803.843 174.636 797.034 180.567 780.165 187.257C780.746 191.888 781.324 197.927 782.136 202.416C782.931 208.784 783.935 215.732 784.356 222.076C795.76 222.045 808.389 223.742 819.642 225.555C871.868 233.747 920.99 255.642 962.001 289.009C963.941 290.762 965.893 292.502 967.859 294.227C973.843 298.921 993.629 317.243 997.431 323.188C1011.87 334.489 1038.92 378.996 1046.43 396.769C1055.25 398.775 1051.01 404.814 1055.16 406.694C1059.53 408.508 1064.18 410.549 1068.57 412.235C1072.98 414.571 1079.21 418.009 1081.02 423.171C1088.63 434.008 1093.74 431.213 1098.92 446.632C1101.18 452 1103.55 460.651 1103.99 466.543C1105.16 472.075 1105.69 477.726 1106.33 483.347C1107.49 506.266 1106.49 553.46 1083.91 566.197L1080.85 568.173C1076.16 581.175 1066.49 584.875 1054.35 588.616C1051.32 589.858 1050.75 591.753 1048.65 594.83C1042.08 597.755 1038.9 598.597 1031.81 599.599C1030.37 599.803 1024.85 600.484 1023.75 600.962C1019.41 605.335 1014.33 616.995 1010.09 622.666C995.022 642.785 975.498 659.015 953.483 671.042C951.559 672.091 946.157 674.749 944.288 674.881C940.647 676.742 938.125 677.886 934.327 679.403L929.67 680.855L930.467 682.425L930.612 683.062C933.021 684.426 938.956 687.877 940.854 689.351C946.076 693.406 957.765 714.794 958.174 720.773C960.697 726.277 962.049 726.571 966.736 730.458C975.434 735.404 985.13 742.821 992.768 749.049C998.692 753.879 1012.61 765.165 1014.68 772.008C1018.88 785.943 1000.71 801.684 991.232 809.69C956.176 839.485 911.564 856.394 867.295 867.027C773.102 887.427 659.931 877.985 575.893 828.616C575.478 828.373 574.929 827.947 574.554 827.661C562.204 822.998 515.155 788.34 519.975 773.091C524.939 757.387 556.584 736.961 570.49 728.345C572.239 727.472 574.669 725.869 576.396 724.806L577.682 720.86C578.207 717.803 583.473 706.543 585.188 703.697C588.202 697.156 590.223 693.304 595.202 688.109C599.178 684.992 600.899 684.218 605.511 681.995L605.85 680.855C601.255 679.304 591.253 674.421 586.434 672.237C583.001 670.414 574.92 666.073 572.163 663.661C554.409 655.748 530.664 630.552 520.117 614.03L512.399 600.855C506.089 599.756 500.365 598.858 494.196 597.083C485.714 594.756 488.21 588.691 479.499 587.42C475.26 586.362 473.89 586.058 470.06 584.067C465.267 582.344 457.295 576.07 456.65 570.71C454.593 567.889 451.571 566.319 448.6 564.317C446.01 562.485 443.786 560.182 442.047 557.527C429.35 538.432 427.608 491.568 432.021 469.954C431.95 465.465 435.382 450.382 437.143 446.062C440.467 437.905 443.88 431.994 451.978 428.247L455.467 423.096L456.006 422.055C460.862 413.946 470.701 410.967 479.191 407.585C480.7 407.241 481.363 406.142 482.43 404.934C483.012 403.263 483.57 401.583 484.103 399.896C493.179 392.51 497.917 376.722 505.016 365.803C513.616 352.575 521.555 339.208 532.662 327.654C539.98 318.511 551.716 307.452 560.266 299.497L561.815 298.313C577.815 281.791 611.693 260.253 632.599 250.867C667.412 233.055 712.339 223.542 751.268 221.629C751.832 211.84 753.85 196.696 755.408 186.99C736.646 181.343 724.09 168.828 722.292 148.877C721.686 142.404 722.463 135.877 724.572 129.728C727.744 120.64 735.386 110.41 744.102 106.119C747.365 103.646 752.106 102.209 756.025 100.775Z"/><defs><linearGradient id="gradient_1" gradientUnits="userSpaceOnUse" x1="681.83618" y1="654.48645" x2="852.86298" y2="359.00787"><stop offset="0" stop-color="#1D1A19"/><stop offset="1" stop-color="#4E3A30"/></linearGradient></defs><path fill="url(#gradient_1)" d="M568.249 421.755C607.97 374.2 659.86 366.343 718.929 362.282C760.066 359.453 803.038 359.823 843.978 364.875C841.732 367.045 831.074 369.211 827.629 369.772L827.24 371.068C878.115 377.307 924.358 386.601 958.468 429.284C979.378 455.45 987.041 493.254 982.991 526.114C979.375 557.848 962.979 586.735 937.591 606.106C913.123 625.091 895.709 628.747 867.704 637.906C845.484 642.066 829.38 645.274 806.436 646.654C800.013 647.04 770.401 647.291 766.036 648.028C761.792 648.422 751.315 658.084 748.528 661.354C744.829 661.01 738.169 661.064 734.233 660.964L734.244 660.473C736.393 660.124 736.814 660.429 738.199 659.245C734.671 658.081 712.641 656.056 706.793 655.494C681.291 653.042 633.802 642.884 612.558 628.375C611.853 628.291 612.012 628.365 611.265 627.963C582.879 612.67 559.368 588.57 548.835 558.234C535.776 519.575 538.311 477.344 555.9 440.525C558.583 437.722 565.321 425.975 568.249 421.755Z"/><defs><linearGradient id="gradient_2" gradientUnits="userSpaceOnUse" x1="580.59735" y1="402.88144" x2="749.53802" y2="510.69165"><stop offset="0" stop-color="#7B7D89"/><stop offset="1" stop-color="#B7B7BD"/></linearGradient></defs><path fill="url(#gradient_2)" d="M568.249 421.755C607.97 374.2 659.86 366.343 718.929 362.282C760.066 359.453 803.038 359.823 843.978 364.875C841.732 367.045 831.074 369.211 827.629 369.772L827.24 371.068C815.985 370.639 801.768 369.051 791.053 368.959C746.471 368.577 679.288 369.803 637.634 385.066C620.144 391.412 604.072 401.137 590.333 413.687C531 468.708 541.279 578.825 613.892 616.72C617.106 618.397 623.742 621.91 626.509 623.842C625.791 626.799 622.198 629.31 619.672 631.308C617.131 629.96 615.403 628.81 612.558 628.375C611.853 628.291 612.012 628.365 611.265 627.963C582.879 612.67 559.368 588.57 548.835 558.234C535.776 519.575 538.311 477.344 555.9 440.525C558.583 437.722 565.321 425.975 568.249 421.755Z"/><defs><linearGradient id="gradient_3" gradientUnits="userSpaceOnUse" x1="659.06238" y1="599.82965" x2="722.01544" y2="681.15649"><stop offset="0" stop-color="#ACB2C1"/><stop offset="1" stop-color="#E9E4E2"/></linearGradient></defs><path fill="url(#gradient_3)" d="M626.509 623.842C677.387 644.832 711.912 646.141 766.036 648.028C761.792 648.422 751.315 658.084 748.528 661.354C744.829 661.01 738.169 661.064 734.233 660.964L734.244 660.473C736.393 660.124 736.814 660.429 738.199 659.245C734.671 658.081 712.641 656.056 706.793 655.494C681.291 653.042 633.802 642.884 612.558 628.375C615.403 628.81 617.131 629.96 619.672 631.308C622.198 629.31 625.791 626.799 626.509 623.842Z"/><path fill="#814F27" d="M815.105 397.446C816.117 393.017 820.1 382.64 820.094 381.422C818.337 379.571 817.322 379.564 814.515 379.505C813.24 379.486 811.966 379.485 810.691 379.502C813.691 377.405 847.317 382.551 852.551 383.554C878.703 388.57 912.484 398.783 931.527 418.206C938.606 425.426 957.49 453.244 959.766 462.311L959.453 463.485C958.71 462.535 959.128 462.679 958.134 462.315C948.75 458.879 925.033 452.365 923.69 468.709C922.639 481.496 927.754 489.848 923.595 503.429C922.876 501.147 922.845 500.463 922.677 498.062L921.984 498.121L921.809 498.658C919.089 504.804 919.385 512.673 916.069 519.168C904.52 541.786 875.066 549.478 852.589 538.798C837.092 532.806 831.903 520.29 826.527 505.498C824.283 499.324 825.847 471.534 833.331 469.174L832.54 467.33C833.273 465.633 833.348 465.488 834.792 463.9C838.419 459.526 841.31 451.494 841.604 445.954C841.755 443.108 836.977 436.55 835.143 434.126C825.797 421.779 819.274 412.71 815.105 397.446Z"/><path fill="#995719" d="M833.331 469.174C839.058 467.064 839.602 463.677 843.893 460.188C845.465 458.909 850.662 457.203 852.858 456.076C884.927 439.619 922.918 459.887 919.936 497.687L921.809 498.658C919.089 504.804 919.385 512.673 916.069 519.168C904.52 541.786 875.066 549.478 852.589 538.798C837.092 532.806 831.903 520.29 826.527 505.498C824.283 499.324 825.847 471.534 833.331 469.174Z"/><path fill="#F6A61E" d="M865.978 457.877C886.758 453.63 907.027 467.102 911.163 487.909C915.299 508.717 901.725 528.919 880.901 532.948C860.231 536.946 840.215 523.49 836.109 502.837C832.003 482.183 845.351 462.091 865.978 457.877Z"/><path fill="#FEEE60" d="M850.86 470.162C863.097 458.954 881.646 458.251 894.695 468.501C907.744 478.751 911.459 496.942 903.474 511.49C897.005 523.277 884.183 530.127 870.791 528.951C857.399 527.775 845.967 518.795 841.65 506.061C837.333 493.326 840.946 479.243 850.86 470.162Z"/><path fill="#FFFEE8" d="M898.144 484.278C890.777 497.965 877.391 493.931 873.921 480.58C871.4 470.881 878.967 464.741 887.32 470.271C890.499 472.376 891.566 472.604 894.516 475.357C896.866 479.012 897.067 480.011 898.144 484.278Z"/><path fill="#FEFB7E" d="M850.86 470.162C863.097 458.954 881.646 458.251 894.695 468.501C907.744 478.751 911.459 496.942 903.474 511.49L902.89 511.193C903.146 510.596 905.365 505.129 905.334 505.008C904.161 500.32 903.083 495.006 903.671 490.139L906.241 498.524L906.841 498.514C906.93 494.669 905.805 486.517 904.398 482.971L902.841 482.887C900.999 483.874 900.251 484.564 898.144 484.278C897.067 480.011 896.866 479.012 894.516 475.357C896.245 473.381 896.255 473.984 896.49 471.834C886.386 460.107 871.54 460.361 858.43 466.812C855.656 468.176 853.992 470.238 850.86 470.162Z"/><defs><linearGradient id="gradient_4" gradientUnits="userSpaceOnUse" x1="858.84363" y1="424.89096" x2="886.5567" y2="392.23035"><stop offset="0" stop-color="#846553"/><stop offset="1" stop-color="#BD8F6A"/></linearGradient></defs><path fill="url(#gradient_4)" d="M846.471 390.926C846.953 390.889 847.435 390.858 847.918 390.834C863.581 390.106 893.555 398.941 906.875 407.907C913.828 412.587 901.902 426.845 898.046 430.686C897.472 431.317 896.006 432.928 895.291 433.361C880.264 442.471 816.493 408.87 846.471 390.926Z"/><path fill="#A98162" d="M920.519 426.67C931.029 425.788 938.829 436.665 930.432 444.753C918.792 444.826 911.42 436.281 920.519 426.67Z"/><path fill="#814F27" d="M657.829 448.02C664.455 447.448 671.404 448.537 677.664 450.67C729.513 468.331 712.509 548.429 655.68 543.417C631.775 537.547 612.493 517.906 612.979 491.372C613.013 489.513 613.395 485.305 614.761 484.167L614.532 483.027C614.811 485.751 614.54 488.518 616.068 490.139C616.282 486.931 616.168 483.464 616.132 480.222C619.192 475.469 620.179 471.928 624.098 466.529C631.914 455.763 644.932 449.964 657.829 448.02Z"/><path fill="#FEEE60" d="M624.248 504.684C611.574 444.828 708.834 437.965 697.986 506.943C697.032 509.27 696.055 511.606 694.855 513.819C690.031 522.647 681.904 529.202 672.257 532.049C662.302 534.982 651.59 533.823 642.493 528.828C632.651 523.296 627.312 515.289 624.248 504.684Z"/><path fill="#D78110" d="M624.248 504.684C611.574 444.828 708.834 437.965 697.986 506.943L696.453 503.513C694.795 505.072 694.212 509.312 691.899 512.375L690.266 512.848C699.919 496.987 695 476.309 679.24 466.496C663.48 456.684 642.759 461.398 632.792 477.063C622.826 492.728 627.332 513.5 642.893 523.625L642.165 524.011C634.47 523.311 628.394 505.424 625.679 503.671L624.248 504.684Z"/><path fill="#F6A61E" d="M690.266 512.848L691.899 512.375C694.212 509.312 694.795 505.072 696.453 503.513L697.986 506.943C697.032 509.27 696.055 511.606 694.855 513.819C690.031 522.647 681.904 529.202 672.257 532.049C662.302 534.982 651.59 533.823 642.493 528.828C632.651 523.296 627.312 515.289 624.248 504.684L625.679 503.671C628.394 505.424 634.47 523.311 642.165 524.011L642.893 523.625C650.566 528.617 659.933 530.288 668.858 528.258C677.784 526.227 685.507 520.668 690.266 512.848Z"/><path fill="#FFFEE8" d="M661.073 470.472C670.152 469.541 682.271 472.675 683.408 484.644C683.694 487.659 680.658 490.584 678.406 492.494C665.667 495.048 649.234 480.874 661.073 470.472Z"/><path fill="#FEEE60" d="M719.7 553.476C723.071 554.523 726.854 557.039 730.133 558.73C749.754 568.851 775.056 569.053 795.882 562.64C800.843 561.113 813.31 553.49 816.68 554.402C818.135 557.859 816.416 560.257 814.405 562.913C784.967 589.689 709.549 573.503 719.7 553.476Z"/><defs><linearGradient id="gradient_5" gradientUnits="userSpaceOnUse" x1="682.12006" y1="705.62134" x2="920.13153" y2="897.76453"><stop offset="0" stop-color="#ADAEB8"/><stop offset="1" stop-color="white"/></linearGradient></defs><path fill="url(#gradient_5)" d="M605.85 680.855L606.322 680.97C611.96 682.398 621.038 685.917 627.111 687.806C640.573 691.998 654.214 695.59 667.994 698.571C736.94 713.539 817.699 711.633 885.865 694.601C901.126 690.788 914.858 685.609 929.67 680.855L930.467 682.425L930.612 683.062C933.021 684.426 938.956 687.877 940.854 689.351C946.076 693.406 957.765 714.794 958.174 720.773C960.697 726.277 962.049 726.571 966.736 730.458C975.434 735.404 985.13 742.821 992.768 749.049C998.692 753.879 1012.61 765.165 1014.68 772.008C1018.88 785.943 1000.71 801.684 991.232 809.69C956.176 839.485 911.564 856.394 867.295 867.027C773.102 887.427 659.931 877.985 575.893 828.616C575.478 828.373 574.929 827.947 574.554 827.661C562.204 822.998 515.155 788.34 519.975 773.091C524.939 757.387 556.584 736.961 570.49 728.345C572.239 727.472 574.669 725.869 576.396 724.806L577.682 720.86C578.207 717.803 583.473 706.543 585.188 703.697C588.202 697.156 590.223 693.304 595.202 688.109C599.178 684.992 600.899 684.218 605.511 681.995L605.85 680.855Z"/><path fill="#251B17" d="M605.85 680.855L606.322 680.97C611.96 682.398 621.038 685.917 627.111 687.806C640.573 691.998 654.214 695.59 667.994 698.571C736.94 713.539 817.699 711.633 885.865 694.601C901.126 690.788 914.858 685.609 929.67 680.855L930.467 682.425L930.612 683.062L928.993 684.69L929.566 686.037C932.279 686.931 934.616 687.415 936.473 689.603C937.26 691.864 936.515 693.502 935.903 695.904C934.588 700.027 933.783 701.588 931.738 705.449L928.157 711.919C931.019 710.052 931.886 708.717 934.988 707.924L935.52 708.684C934.966 710.095 933.262 713.163 933.114 714.275C927.209 722.25 916.939 730.747 909.034 736.92C886.268 753.466 866.114 761.43 838.873 768.805C835.156 769.812 816.93 773.134 815.088 774.029C789.482 777.213 771.388 778.02 745.278 776.386C739.48 775.701 733.829 775.108 728.091 773.992C719.749 774.464 684.755 763.761 676.755 760.208C673.571 756.843 663.297 754.713 661.68 751.997C666.8 752.746 672.323 756.083 676.784 755.716C674.157 754.585 671.54 753.588 669.141 752.046C648.566 743.416 621.567 729.099 607.27 711.21C603.397 706.365 597.637 693.902 595.202 688.109C599.178 684.992 600.899 684.218 605.511 681.995L605.85 680.855Z"/><defs><linearGradient id="gradient_6" gradientUnits="userSpaceOnUse" x1="808.82715" y1="719.27124" x2="822.96991" y2="765.94043"><stop offset="0" stop-color="#D56300"/><stop offset="1" stop-color="#FFCC24"/></linearGradient></defs><path fill="url(#gradient_6)" d="M919.856 699.417C924.887 702.186 926.369 703.081 931.738 705.449L928.157 711.919C931.019 710.052 931.886 708.717 934.988 707.924L935.52 708.684C934.966 710.095 933.262 713.163 933.114 714.275C927.209 722.25 916.939 730.747 909.034 736.92C886.268 753.466 866.114 761.43 838.873 768.805C835.156 769.812 816.93 773.134 815.088 774.029C789.482 777.213 771.388 778.02 745.278 776.386C739.48 775.701 733.829 775.108 728.091 773.992C719.749 774.464 684.755 763.761 676.755 760.208C673.571 756.843 663.297 754.713 661.68 751.997C666.8 752.746 672.323 756.083 676.784 755.716C674.157 754.585 671.54 753.588 669.141 752.046C672.208 752.198 692.007 759.734 696.216 761.148C695.207 758.533 694.64 756.642 693.89 753.989C686.667 752.14 676.021 747.926 669.153 745.023L669.193 743.816C677.114 746.919 685.133 749.764 693.239 752.347C751.216 770.317 823.235 766.454 877.313 737.867C891.981 730.113 914.773 715.809 919.856 699.417Z"/><defs><linearGradient id="gradient_7" gradientUnits="userSpaceOnUse" x1="836.66797" y1="735.19226" x2="848.49841" y2="765.28296"><stop offset="0" stop-color="#FFD32A"/><stop offset="1" stop-color="#FFFF91"/></linearGradient></defs><path fill="url(#gradient_7)" d="M928.157 711.919C931.019 710.052 931.886 708.717 934.988 707.924L935.52 708.684C934.966 710.095 933.262 713.163 933.114 714.275C927.209 722.25 916.939 730.747 909.034 736.92C886.268 753.466 866.114 761.43 838.873 768.805C835.156 769.812 816.93 773.134 815.088 774.029C789.482 777.213 771.388 778.02 745.278 776.386C739.48 775.701 733.829 775.108 728.091 773.992C732.779 772.487 738.649 775.521 741.784 774.207L742.324 772.764C740.217 771.12 737.138 771.198 734.125 770.74L735.559 770.155C798.914 778.296 870.732 763.199 918.808 720.162C921.728 717.547 924.955 714.021 928.157 711.919Z"/><path fill="#F6A61E" d="M676.755 760.208C673.571 756.843 663.297 754.713 661.68 751.997C666.8 752.746 672.323 756.083 676.784 755.716C684.617 757.476 695.332 762.241 704.211 764.504C712.499 766.617 728.732 768.031 735.559 770.155L734.125 770.74C737.138 771.198 740.217 771.12 742.324 772.764L741.784 774.207C738.649 775.521 732.779 772.487 728.091 773.992C719.749 774.464 684.755 763.761 676.755 760.208Z"/><path fill="#995719" d="M595.202 688.109C599.178 684.992 600.899 684.218 605.511 681.995C611.713 684.293 617.447 686.403 623.765 688.37C620.568 691.923 616.18 697.123 617.217 702.258C620.598 719.006 643.885 730.11 657.459 737.845C661.243 740.001 666.51 741.746 669.193 743.816L669.153 745.023C676.021 747.926 686.667 752.14 693.89 753.989C694.64 756.642 695.207 758.533 696.216 761.148C692.007 759.734 672.208 752.198 669.141 752.046C648.566 743.416 621.567 729.099 607.27 711.21C603.397 706.365 597.637 693.902 595.202 688.109Z"/><path fill="#BC6A13" d="M930.467 682.425L930.612 683.062L928.993 684.69L929.566 686.037C932.279 686.931 934.616 687.415 936.473 689.603C937.26 691.864 936.515 693.502 935.903 695.904C934.588 700.027 933.783 701.588 931.738 705.449C926.369 703.081 924.887 702.186 919.856 699.417C917.2 694.458 915.895 692.339 911.919 688.429C916.682 686.693 925.877 683.025 930.467 682.425Z"/><path fill="#4A3225" d="M827.254 727.656C840.191 726.724 836.176 737.119 838.569 742.655L841.148 741.865L841.469 742.35L840.942 743.167C819.776 748.825 812.558 750.229 790.333 751.438C784.664 751.531 778.559 751.381 772.855 751.341C778.024 747.716 821.223 729.248 827.254 727.656Z"/><path fill="#9C9FAB" d="M595.202 688.109C597.637 693.902 603.397 706.365 607.27 711.21C621.567 729.099 648.566 743.416 669.141 752.046C671.54 753.588 674.157 754.585 676.784 755.716C672.323 756.083 666.8 752.746 661.68 751.997C663.297 754.713 673.571 756.843 676.755 760.208C669.705 758.225 663.438 754.351 656.286 752.296L655.126 752.748L649.731 750.332C646.959 762.27 645.217 771.883 643.066 783.957C647.47 786.048 683.955 802.404 685.02 803.794C690.765 806.095 700.527 809.091 706.633 810.53L702.933 810.903L702.887 812.547C709.371 818.597 731.869 818.663 734.853 822.373C710.569 820.937 674.024 806.146 651.813 796.322C651.526 797.308 651.289 798.245 651.209 799.27C642.312 799.543 618.572 785.422 615.197 785.186C617.701 786.661 619.353 787.618 622.017 788.831C615.321 799.537 595.764 824.042 582.8 829.554C580.425 830.564 578.254 825.145 574.554 827.661C562.204 822.998 515.155 788.34 519.975 773.091C524.939 757.387 556.584 736.961 570.49 728.345C572.239 727.472 574.669 725.869 576.396 724.806L577.682 720.86C578.207 717.803 583.473 706.543 585.188 703.697C588.202 697.156 590.223 693.304 595.202 688.109Z"/><defs><linearGradient id="gradient_8" gradientUnits="userSpaceOnUse" x1="653.00702" y1="757.25281" x2="578.90002" y2="720.43762"><stop offset="0" stop-color="#A55C0E"/><stop offset="1" stop-color="#72401B"/></linearGradient></defs><path fill="url(#gradient_8)" d="M595.202 688.109C597.637 693.902 603.397 706.365 607.27 711.21C621.567 729.099 648.566 743.416 669.141 752.046C671.54 753.588 674.157 754.585 676.784 755.716C672.323 756.083 666.8 752.746 661.68 751.997C663.297 754.713 673.571 756.843 676.755 760.208C669.705 758.225 663.438 754.351 656.286 752.296L655.126 752.748L649.731 750.332C646.959 762.27 645.217 771.883 643.066 783.957C647.47 786.048 683.955 802.404 685.02 803.794C666.189 799.606 632.71 779.484 615.585 769.401C597.774 757.818 578.325 743.49 577.682 720.86C578.207 717.803 583.473 706.543 585.188 703.697C588.202 697.156 590.223 693.304 595.202 688.109Z"/><defs><linearGradient id="gradient_9" gradientUnits="userSpaceOnUse" x1="639.36078" y1="714.17743" x2="613.01147" y2="729.83795"><stop offset="0" stop-color="#E09320"/><stop offset="1" stop-color="#975215"/></linearGradient></defs><path fill="url(#gradient_9)" d="M595.202 688.109C597.637 693.902 603.397 706.365 607.27 711.21C621.567 729.099 648.566 743.416 669.141 752.046C671.54 753.588 674.157 754.585 676.784 755.716C672.323 756.083 666.8 752.746 661.68 751.997C663.297 754.713 673.571 756.843 676.755 760.208C669.705 758.225 663.438 754.351 656.286 752.296C635.753 741.728 613.359 729.036 600.115 709.464C598.848 707.593 598.007 705.815 596.249 704.344L595.333 705.756C594.437 701.223 593.748 699.737 591.869 695.453C590.588 697.921 588.38 703.304 586.549 704.603L585.188 703.697C588.202 697.156 590.223 693.304 595.202 688.109Z"/><path fill="#814F27" d="M591.469 753.661C599.223 757.137 610.65 769.284 615.585 769.401C632.71 779.484 666.189 799.606 685.02 803.794C690.765 806.095 700.527 809.091 706.633 810.53L702.933 810.903L702.887 812.547C709.371 818.597 731.869 818.663 734.853 822.373C710.569 820.937 674.024 806.146 651.813 796.322C646.764 792.697 630.315 785.353 621.735 779.726C621.081 778.16 596.012 758.556 591.469 753.661Z"/><path fill="#643716" d="M577.682 720.86C578.325 743.49 597.774 757.818 615.585 769.401C610.65 769.284 599.223 757.137 591.469 753.661C596.012 758.556 621.081 778.16 621.735 779.726C606.466 770.195 580.3 751.856 576.924 732.293C576.581 730.305 576.509 726.9 576.396 724.806L577.682 720.86Z"/><path fill="#D78110" d="M649.731 750.332L655.126 752.748L656.286 752.296C663.438 754.351 669.705 758.225 676.755 760.208C684.755 763.761 719.749 774.464 728.091 773.992C733.829 775.108 739.48 775.701 745.278 776.386C756.85 782.289 773.324 770.681 783.726 797.4C787.605 807.364 782.508 809.886 784.306 816.745C777.451 816.97 770.593 817.102 763.734 817.141C767.797 817.361 771.858 817.609 775.917 817.884C765.993 820.216 735.234 816.395 724.685 814.247C720.113 813.316 711.651 811.11 707.564 810.632L706.633 810.53C700.527 809.091 690.765 806.095 685.02 803.794C683.955 802.404 647.47 786.048 643.066 783.957C645.217 771.883 646.959 762.27 649.731 750.332Z"/><path fill="#FEC729" d="M909.034 736.92C907.905 738.992 907.437 739.758 905.56 741.192C903.987 747.924 912.773 768.717 913.504 775.524C898.021 784.946 859.29 804.545 841.741 806.976C817.907 815.282 800.287 816.406 775.917 817.884C771.858 817.609 767.797 817.361 763.734 817.141C770.593 817.102 777.451 816.97 784.306 816.745C782.508 809.886 787.605 807.364 783.726 797.4C773.324 770.681 756.85 782.289 745.278 776.386C771.388 778.02 789.482 777.213 815.088 774.029C816.93 773.134 835.156 769.812 838.873 768.805C866.114 761.43 886.268 753.466 909.034 736.92Z"/><path fill="#F6A61E" d="M745.278 776.386C771.388 778.02 789.482 777.213 815.088 774.029L815.233 774.901C806.809 776.306 793.876 778.092 785.378 777.978C789.796 785.881 793.022 787.507 796.42 797.091C797.857 801.145 798.975 813.625 799.638 815.08C808.401 815.697 835.987 805.402 841.741 806.976C817.907 815.282 800.287 816.406 775.917 817.884C771.858 817.609 767.797 817.361 763.734 817.141C770.593 817.102 777.451 816.97 784.306 816.745C782.508 809.886 787.605 807.364 783.726 797.4C773.324 770.681 756.85 782.289 745.278 776.386Z"/><path fill="#F6A61E" d="M930.612 683.062C933.021 684.426 938.956 687.877 940.854 689.351C946.076 693.406 957.765 714.794 958.174 720.773C959.316 728.652 959.426 733.529 954.657 740.649C954.055 741.547 946.214 749.192 945.411 749.646C939.806 756.061 920.786 772.957 913.504 775.524C912.773 768.717 903.987 747.924 905.56 741.192C907.437 739.758 907.905 738.992 909.034 736.92C916.939 730.747 927.209 722.25 933.114 714.275C933.262 713.163 934.966 710.095 935.52 708.684L934.988 707.924C931.886 708.717 931.019 710.052 928.157 711.919L931.738 705.449C933.783 701.588 934.588 700.027 935.903 695.904C936.515 693.502 937.26 691.864 936.473 689.603C934.616 687.415 932.279 686.931 929.566 686.037L928.993 684.69L930.612 683.062Z"/><path fill="#D78110" d="M930.612 683.062C933.021 684.426 938.956 687.877 940.854 689.351C946.076 693.406 957.765 714.794 958.174 720.773C959.316 728.652 959.426 733.529 954.657 740.649C954.055 741.547 946.214 749.192 945.411 749.646C945.397 746.321 954.037 737.704 955.499 733.186C954.501 729.635 942.78 707.339 940.141 706.863C939.735 709.558 936.574 712.383 934.877 714.778L933.826 714.687L933.114 714.275C933.262 713.163 934.966 710.095 935.52 708.684L934.988 707.924C931.886 708.717 931.019 710.052 928.157 711.919L931.738 705.449C933.783 701.588 934.588 700.027 935.903 695.904C936.515 693.502 937.26 691.864 936.473 689.603C934.616 687.415 932.279 686.931 929.566 686.037L928.993 684.69L930.612 683.062Z"/><path fill="#FEC729" d="M935.903 695.904C939.021 695.817 939.644 695.219 941.624 696.832C943.327 702.21 936.84 710.408 933.826 714.687L933.114 714.275C933.262 713.163 934.966 710.095 935.52 708.684L934.988 707.924C931.886 708.717 931.019 710.052 928.157 711.919L931.738 705.449C933.783 701.588 934.588 700.027 935.903 695.904Z"/><path fill="#F6A61E" d="M944.528 703.863C951.051 704.669 958.122 724.601 957.418 731.225L955.786 730.85C953.682 727.642 946.246 708.699 944.528 703.863Z"/><path fill="#BC6A13" d="M958.174 720.773C960.697 726.277 962.049 726.571 966.736 730.458L962.746 728.503C958.908 729.884 959.449 738.791 956.53 742.861C933.725 774.657 895.198 793.435 859.691 807.324C826.838 819.401 792.184 826.035 757.618 824.394C752.434 824.148 739.488 823.866 734.853 822.373C731.869 818.663 709.371 818.597 702.887 812.547L702.933 810.903L706.633 810.53L707.564 810.632C711.651 811.11 720.113 813.316 724.685 814.247C735.234 816.395 765.993 820.216 775.917 817.884C800.287 816.406 817.907 815.282 841.741 806.976C859.29 804.545 898.021 784.946 913.504 775.524C920.786 772.957 939.806 756.061 945.411 749.646C946.214 749.192 954.055 741.547 954.657 740.649C959.426 733.529 959.316 728.652 958.174 720.773Z"/><path fill="#9C9FAB" d="M645.273 282.933C647.072 283.069 648.871 283.217 650.668 283.377C648.37 284.712 647.629 285.301 645.6 287.032C635.906 292.713 625.609 296.953 615.218 303.343C611.467 307.054 603.267 311.638 600.824 315.109C605.442 338.149 598.865 338.682 592.81 360.549C588.098 377.568 585.177 394.74 576.261 410.677C574.489 413.845 569.956 417.02 567.631 420.973L568.249 421.755C565.321 425.975 558.583 437.722 555.9 440.525C538.311 477.344 535.776 519.575 548.835 558.234C559.368 588.57 582.879 612.67 611.265 627.963C612.012 628.365 611.853 628.291 612.558 628.375C633.802 642.884 681.291 653.042 706.793 655.494C712.641 656.056 734.671 658.081 738.199 659.245C736.814 660.429 736.393 660.124 734.244 660.473L734.233 660.964C732.062 661.305 724.149 660.891 721.542 660.807C741.384 667.359 789.382 671.848 810.117 670.884C838.073 669.584 873.187 663.693 900.478 657.077C909.421 654.908 923.016 649.925 932.482 647.109C941.293 644.488 958.228 639.482 965.424 634.585C979.311 625.138 994.428 611.619 1006.93 600.157C1009.28 597.996 1012.56 592.084 1015.33 589.098L1015.7 588.714C1012.56 598.776 1007.66 602.734 1002.84 610.586C986.357 637.475 973.898 647.687 946.306 663.213C949.4 664.204 954.208 664.368 956.399 665.899C955.483 667.864 939.323 673.585 934.327 679.403L929.67 680.855C914.858 685.609 901.126 690.788 885.865 694.601C817.699 711.633 736.94 713.539 667.994 698.571C654.214 695.59 640.573 691.998 627.111 687.806C621.038 685.917 611.96 682.398 606.322 680.97L605.85 680.855C601.255 679.304 591.253 674.421 586.434 672.237C583.001 670.414 574.92 666.073 572.163 663.661C554.409 655.748 530.664 630.552 520.117 614.03L512.399 600.855C506.089 599.756 500.365 598.858 494.196 597.083C485.714 594.756 488.21 588.691 479.499 587.42C475.26 586.362 473.89 586.058 470.06 584.067C465.267 582.344 457.295 576.07 456.65 570.71C454.593 567.889 451.571 566.319 448.6 564.317C446.01 562.485 443.786 560.182 442.047 557.527C429.35 538.432 427.608 491.568 432.021 469.954C431.95 465.465 435.382 450.382 437.143 446.062C440.467 437.905 443.88 431.994 451.978 428.247L455.467 423.096L456.006 422.055C460.862 413.946 470.701 410.967 479.191 407.585C480.7 407.241 481.363 406.142 482.43 404.934C483.012 403.263 483.57 401.583 484.103 399.896C493.179 392.51 497.917 376.722 505.016 365.803C513.616 352.575 521.555 339.208 532.662 327.654C539.98 318.511 551.716 307.452 560.266 299.497L561.815 298.313L562.27 299.933C565.456 299.623 570.775 293.58 573.223 291.084C574.25 292.667 575.827 294.931 576.711 296.506L578.049 296.896L579.01 299.359C580.542 301.456 582.14 303.545 583.486 305.759C584.685 308.378 585.448 310.634 588.239 311.89C589.711 311.752 589.662 311.131 592.588 311.095C600.746 306.984 609.888 299.528 619.994 294.493C624.244 294.813 640.684 285.391 645.273 282.933Z"/><defs><linearGradient id="gradient_10" gradientUnits="userSpaceOnUse" x1="471.42282" y1="542.85004" x2="504.61023" y2="532.0705"><stop offset="0" stop-color="#241916"/><stop offset="1" stop-color="#4B362A"/></linearGradient></defs><path fill="url(#gradient_10)" d="M451.978 428.247L455.467 423.096C453.866 428.237 451.299 435.697 451.014 440.842L452.291 443.773C457.968 445.262 466.244 440.362 472.315 441.038L471.283 442.94L472.996 444.381C472.757 447.562 472.346 451.591 472.358 454.71C471.538 457.314 471.649 458.505 471.647 461.165L473.33 459.873C473.474 457.158 473.028 457.011 474.337 455.176C477.853 454.613 487.756 455.347 492.553 455.253C491.612 460.135 489.889 468.71 489.695 473.648C487.777 495.869 487.512 519.551 489.734 541.787C491.494 559.394 499.59 580.854 505.928 597.387C502.621 597.175 497.274 596.65 494.196 597.083C485.714 594.756 488.21 588.691 479.499 587.42C475.26 586.362 473.89 586.058 470.06 584.067C465.267 582.344 457.295 576.07 456.65 570.71C454.593 567.889 451.571 566.319 448.6 564.317C446.01 562.485 443.786 560.182 442.047 557.527C429.35 538.432 427.608 491.568 432.021 469.954C431.95 465.465 435.382 450.382 437.143 446.062C440.467 437.905 443.88 431.994 451.978 428.247Z"/><path fill="#814F27" d="M451.978 428.247L455.467 423.096C453.866 428.237 451.299 435.697 451.014 440.842L452.291 443.773C457.968 445.262 466.244 440.362 472.315 441.038L471.283 442.94L472.996 444.381C472.757 447.562 472.346 451.591 472.358 454.71C471.538 457.314 471.649 458.505 471.647 461.165C471.343 465.435 470.899 470.171 470.837 474.414C470.343 485.817 469.927 498.879 470.339 510.321C469.081 508.726 469.73 508.884 468.369 508.667L468.231 508.471C467.474 510.787 468.022 510.301 466.348 511.294C461.728 510.981 454.846 509.568 451.026 510.486C448.245 512.992 449.632 515.214 447.922 518.622C447.546 527.721 449.584 536.01 450.441 544.744C451.268 555.193 453.318 560.95 456.65 570.71C454.593 567.889 451.571 566.319 448.6 564.317C446.01 562.485 443.786 560.182 442.047 557.527C429.35 538.432 427.608 491.568 432.021 469.954C431.95 465.465 435.382 450.382 437.143 446.062C440.467 437.905 443.88 431.994 451.978 428.247Z"/><path fill="#BC6A13" d="M448.802 477.867L448.969 475.763C456.018 473.257 461.384 477.189 468.91 475.614L469.604 476.316C469.305 477.885 469.199 477.857 469.6 479.373C470.082 477.808 470.458 476.027 470.837 474.414C470.343 485.817 469.927 498.879 470.339 510.321C469.081 508.726 469.73 508.884 468.369 508.667L468.231 508.471C467.474 510.787 468.022 510.301 466.348 511.294C461.728 510.981 454.846 509.568 451.026 510.486C448.245 512.992 449.632 515.214 447.922 518.622C447.433 512.232 447.085 507.052 447.085 500.636C446.917 495.969 446.329 483.2 447.573 479.174L447.856 479.426L448.802 477.867Z"/><path fill="#D78110" d="M448.802 477.867C450.099 480.785 448.997 498.279 448.596 502.137L447.424 502.431L447.251 502.016L448.407 503.188L448.05 503.693L447.085 500.636C446.917 495.969 446.329 483.2 447.573 479.174L447.856 479.426L448.802 477.867Z"/><path fill="#BC6A13" d="M432.021 469.954C431.95 465.465 435.382 450.382 437.143 446.062C440.467 437.905 443.88 431.994 451.978 428.247C447.316 445.711 445.356 460.387 444.786 478.575C443.732 483.779 443.942 497.735 443.826 503.893C443.549 502.186 443.265 501.09 442.814 499.417C439.459 495.973 436.427 496.571 432.247 498.781L431.77 505.696C431.047 493.238 432.531 481.932 432.061 470.809L432.021 469.954Z"/><path fill="#F6A61E" d="M451.014 440.842L452.291 443.773C457.968 445.262 466.244 440.362 472.315 441.038L471.283 442.94L472.996 444.381C472.757 447.562 472.346 451.591 472.358 454.71C471.538 457.314 471.649 458.505 471.647 461.165C471.343 465.435 470.899 470.171 470.837 474.414C470.458 476.027 470.082 477.808 469.6 479.373C469.199 477.857 469.305 477.885 469.604 476.316L468.91 475.614C461.384 477.189 456.018 473.257 448.969 475.763L448.802 477.867L447.856 479.426L447.573 479.174C447.352 467.673 449.258 452.142 451.014 440.842Z"/><path fill="#643716" d="M451.978 428.247L455.467 423.096C453.866 428.237 451.299 435.697 451.014 440.842C449.258 452.142 447.352 467.673 447.573 479.174C446.329 483.2 446.917 495.969 447.085 500.636C447.085 507.052 447.433 512.232 447.922 518.622C447.546 527.721 449.584 536.01 450.441 544.744C451.268 555.193 453.318 560.95 456.65 570.71C454.593 567.889 451.571 566.319 448.6 564.317C450.095 564.836 451.034 565.387 452.501 564.921C450.234 559.56 450.227 554.396 448.808 548.978C442.662 525.502 446.673 501.919 444.786 478.575C445.356 460.387 447.316 445.711 451.978 428.247Z"/><path fill="#814F27" d="M447.922 518.622C449.632 515.214 448.245 512.992 451.026 510.486C454.846 509.568 461.728 510.981 466.348 511.294C468.022 510.301 467.474 510.787 468.231 508.471L468.369 508.667C469.73 508.884 469.081 508.726 470.339 510.321L470.37 511.432C473.41 537.159 472.607 561.836 483.585 587.45C480.343 586.564 473.075 584.373 470.06 584.067C465.267 582.344 457.295 576.07 456.65 570.71C453.318 560.95 451.268 555.193 450.441 544.744C449.584 536.01 447.546 527.721 447.922 518.622Z"/><path fill="#995719" d="M447.922 518.622C449.632 515.214 448.245 512.992 451.026 510.486C454.846 509.568 461.728 510.981 466.348 511.294C468.022 510.301 467.474 510.787 468.231 508.471L468.369 508.667C469.73 508.884 469.081 508.726 470.339 510.321L470.37 511.432C470.327 514.489 470.371 517.522 469.938 520.546C468.884 518.817 469.08 515.853 469.015 513.696L468.146 516.565C466.931 516.985 467.285 517.135 466.381 516.647C461.923 514.241 455.236 514.9 449.972 514.993C450.06 522.209 452.028 539.8 450.441 544.744C449.584 536.01 447.546 527.721 447.922 518.622Z"/><path fill="#814F27" d="M473.33 459.873C473.474 457.158 473.028 457.011 474.337 455.176C477.853 454.613 487.756 455.347 492.553 455.253C491.612 460.135 489.889 468.71 489.695 473.648C488.823 476.345 489.108 477.011 487.15 478.577C481.462 478.285 479.349 479.566 473.05 479.818L472.392 481.609C471.641 480.285 473.043 462.885 473.33 459.873Z"/><path fill="#251B17" d="M573.223 291.084C574.25 292.667 575.827 294.931 576.711 296.506L578.049 296.896L579.01 299.359C580.542 301.456 582.14 303.545 583.486 305.759C584.685 308.378 585.448 310.634 588.239 311.89C589.711 311.752 589.662 311.131 592.588 311.095L591.905 311.784C589.654 314.017 582.194 319.329 579.294 321.66C572.174 327.445 565.365 333.603 558.897 340.109C531.454 367.996 510.146 403.79 500.751 441.878C485.374 504.219 492.052 587.525 538.746 635.832C544.664 641.878 551.024 647.473 557.775 652.572C560.539 654.684 570.477 661.614 572.163 663.661C554.409 655.748 530.664 630.552 520.117 614.03L512.399 600.855C506.089 599.756 500.365 598.858 494.196 597.083C497.274 596.65 502.621 597.175 505.928 597.387C499.59 580.854 491.494 559.394 489.734 541.787C487.512 519.551 487.777 495.869 489.695 473.648C489.889 468.71 491.612 460.135 492.553 455.253C487.756 455.347 477.853 454.613 474.337 455.176C473.028 457.011 473.474 457.158 473.33 459.873L471.647 461.165C471.649 458.505 471.538 457.314 472.358 454.71C472.346 451.591 472.757 447.562 472.996 444.381L471.283 442.94L472.315 441.038C466.244 440.362 457.968 445.262 452.291 443.773L451.014 440.842C451.299 435.697 453.866 428.237 455.467 423.096L456.006 422.055C460.862 413.946 470.701 410.967 479.191 407.585C480.7 407.241 481.363 406.142 482.43 404.934C483.012 403.263 483.57 401.583 484.103 399.896C493.179 392.51 497.917 376.722 505.016 365.803C513.616 352.575 521.555 339.208 532.662 327.654C539.98 318.511 551.716 307.452 560.266 299.497L561.815 298.313L562.27 299.933C565.456 299.623 570.775 293.58 573.223 291.084Z"/><path fill="#643716" d="M573.223 291.084C574.25 292.667 575.827 294.931 576.711 296.506L578.049 296.896L579.01 299.359C543.629 326.053 517.244 364.018 496.708 402.715C498.077 404.483 498.51 405.156 500.212 406.563C497.751 409.794 486.648 407.997 483.135 406.495L482.43 404.934C483.012 403.263 483.57 401.583 484.103 399.896C493.179 392.51 497.917 376.722 505.016 365.803C513.616 352.575 521.555 339.208 532.662 327.654C539.98 318.511 551.716 307.452 560.266 299.497L561.815 298.313L562.27 299.933C565.456 299.623 570.775 293.58 573.223 291.084Z"/><path fill="#2F1B10" d="M532.662 327.654C534.371 326.516 535.13 325.964 536.996 325.147C539.327 325.523 539.974 325.196 542.116 324.406C523.573 347.088 507.927 366.658 496.347 393.791C494.871 397.249 489.949 401.098 489.383 404.074C491.981 406.686 494.588 404.922 496.708 402.715C498.077 404.483 498.51 405.156 500.212 406.563C497.751 409.794 486.648 407.997 483.135 406.495L482.43 404.934C483.012 403.263 483.57 401.583 484.103 399.896C493.179 392.51 497.917 376.722 505.016 365.803C513.616 352.575 521.555 339.208 532.662 327.654Z"/><path fill="#4A3225" d="M573.223 291.084C574.25 292.667 575.827 294.931 576.711 296.506C575.594 295.897 573.368 294.367 572.595 294.767C563.667 299.391 549.364 319.32 542.116 324.406C539.974 325.196 539.327 325.523 536.996 325.147C535.13 325.964 534.371 326.516 532.662 327.654C539.98 318.511 551.716 307.452 560.266 299.497L561.815 298.313L562.27 299.933C565.456 299.623 570.775 293.58 573.223 291.084Z"/><path fill="#4A3225" d="M472.358 454.71C476.302 449.569 476.067 417.572 482.037 410.651C485.106 410.016 500.648 413.022 502.546 415.184C499.194 429.08 495.378 440.946 492.553 455.253C487.756 455.347 477.853 454.613 474.337 455.176C473.028 457.011 473.474 457.158 473.33 459.873L471.647 461.165C471.649 458.505 471.538 457.314 472.358 454.71Z"/><path fill="#BC6A13" d="M479.191 407.585C479.753 409.879 479.442 410.205 478.577 412.545C476.079 422.467 474.948 437.55 472.996 444.381L471.283 442.94L472.315 441.038C466.244 440.362 457.968 445.262 452.291 443.773L451.014 440.842C451.299 435.697 453.866 428.237 455.467 423.096L456.006 422.055C460.862 413.946 470.701 410.967 479.191 407.585Z"/><path fill="#D78110" d="M479.191 407.585C479.753 409.879 479.442 410.205 478.577 412.545C471.09 415.455 460.64 423.443 457.971 423.761L456.006 422.055C460.862 413.946 470.701 410.967 479.191 407.585Z"/><path fill="#7F7F8A" d="M645.273 282.933C647.072 283.069 648.871 283.217 650.668 283.377C648.37 284.712 647.629 285.301 645.6 287.032C635.906 292.713 625.609 296.953 615.218 303.343C609.857 305.166 599.351 312.898 594.675 316.498C567.02 337.785 540.887 366.958 525.553 398.494C497.903 455.357 495.726 522.16 516.816 581.41C531.171 621.74 563.41 653.36 601.985 671.292C686.601 710.626 812.891 712.582 900.816 682.908C918.958 676.785 929.943 673.195 946.306 663.213C949.4 664.204 954.208 664.368 956.399 665.899C955.483 667.864 939.323 673.585 934.327 679.403L929.67 680.855C914.858 685.609 901.126 690.788 885.865 694.601C817.699 711.633 736.94 713.539 667.994 698.571C654.214 695.59 640.573 691.998 627.111 687.806C621.038 685.917 611.96 682.398 606.322 680.97L605.85 680.855C601.255 679.304 591.253 674.421 586.434 672.237C583.001 670.414 574.92 666.073 572.163 663.661C570.477 661.614 560.539 654.684 557.775 652.572C551.024 647.473 544.664 641.878 538.746 635.832C492.052 587.525 485.374 504.219 500.751 441.878C510.146 403.79 531.454 367.996 558.897 340.109C565.365 333.603 572.174 327.445 579.294 321.66C582.194 319.329 589.654 314.017 591.905 311.784L592.588 311.095C600.746 306.984 609.888 299.528 619.994 294.493C624.244 294.813 640.684 285.391 645.273 282.933Z"/><path fill="#E0DEDF" d="M734.244 660.473C726.689 660.841 694.381 657.031 686.832 655.61C638.826 646.571 590.697 628.31 561.389 586.943C540.057 556.834 535.838 514.614 541.732 479.074C543.039 471.198 549.693 444.801 555.9 440.525C538.311 477.344 535.776 519.575 548.835 558.234C559.368 588.57 582.879 612.67 611.265 627.963C612.012 628.365 611.853 628.291 612.558 628.375C633.802 642.884 681.291 653.042 706.793 655.494C712.641 656.056 734.671 658.081 738.199 659.245C736.814 660.429 736.393 660.124 734.244 660.473Z"/><defs><linearGradient id="gradient_11" gradientUnits="userSpaceOnUse" x1="794.45703" y1="481.86163" x2="970.16986" y2="333.81992"><stop offset="0" stop-color="#89868C"/><stop offset="1" stop-color="#E6E4E3"/></linearGradient></defs><path fill="url(#gradient_11)" d="M756.025 100.775C763.237 99.9041 772.355 98.9308 779.347 101.348C791.286 104.298 800.578 111.685 806.825 122.264C808.746 125.567 810.271 129.084 811.368 132.743C814.109 140.609 813.826 150.601 811.253 158.45C803.843 174.636 797.034 180.567 780.165 187.257C780.746 191.888 781.324 197.927 782.136 202.416C782.931 208.784 783.935 215.732 784.356 222.076C795.76 222.045 808.389 223.742 819.642 225.555C871.868 233.747 920.99 255.642 962.001 289.009C963.941 290.762 965.893 292.502 967.859 294.227C973.843 298.921 993.629 317.243 997.431 323.188C1011.87 334.489 1038.92 378.996 1046.43 396.769C1055.25 398.775 1051.01 404.814 1055.16 406.694C1059.53 408.508 1064.18 410.549 1068.57 412.235C1072.98 414.571 1079.21 418.009 1081.02 423.171C1088.63 434.008 1093.74 431.213 1098.92 446.632C1101.18 452 1103.55 460.651 1103.99 466.543C1105.16 472.075 1105.69 477.726 1106.33 483.347C1107.49 506.266 1106.49 553.46 1083.91 566.197L1080.85 568.173C1076.16 581.175 1066.49 584.875 1054.35 588.616C1051.32 589.858 1050.75 591.753 1048.65 594.83C1042.08 597.755 1038.9 598.597 1031.81 599.599C1030.37 599.803 1024.85 600.484 1023.75 600.962C1019.41 605.335 1014.33 616.995 1010.09 622.666C995.022 642.785 975.498 659.015 953.483 671.042C951.559 672.091 946.157 674.749 944.288 674.881C940.647 676.742 938.125 677.886 934.327 679.403C939.323 673.585 955.483 667.864 956.399 665.899C954.208 664.368 949.4 664.204 946.306 663.213C973.898 647.687 986.357 637.475 1002.84 610.586C1007.66 602.734 1012.56 598.776 1015.7 588.714C1015.74 588.505 1017.92 584.74 1018.29 583.786C1025.47 565.759 1030.52 540.652 1032.19 521.47C1041.21 417.751 981.555 327.062 887.241 286.11C826.715 259.992 759.316 254.365 695.299 270.085C678.094 274.38 662.046 280.536 645.6 287.032C647.629 285.301 648.37 284.712 650.668 283.377C648.871 283.217 647.072 283.069 645.273 282.933C640.684 285.391 624.244 294.813 619.994 294.493C609.888 299.528 600.746 306.984 592.588 311.095C589.662 311.131 589.711 311.752 588.239 311.89C585.448 310.634 584.685 308.378 583.486 305.759C582.14 303.545 580.542 301.456 579.01 299.359L578.049 296.896L576.711 296.506C575.827 294.931 574.25 292.667 573.223 291.084C570.775 293.58 565.456 299.623 562.27 299.933L561.815 298.313C577.815 281.791 611.693 260.253 632.599 250.867C667.412 233.055 712.339 223.542 751.268 221.629C751.832 211.84 753.85 196.696 755.408 186.99C736.646 181.343 724.09 168.828 722.292 148.877C721.686 142.404 722.463 135.877 724.572 129.728C727.744 120.64 735.386 110.41 744.102 106.119C747.365 103.646 752.106 102.209 756.025 100.775Z"/><path fill="#995719" d="M1046.43 396.769C1055.25 398.775 1051.01 404.814 1055.16 406.694C1059.53 408.508 1064.18 410.549 1068.57 412.235C1072.98 414.571 1079.21 418.009 1081.02 423.171C1088.63 434.008 1093.74 431.213 1098.92 446.632C1101.18 452 1103.55 460.651 1103.99 466.543C1105.16 472.075 1105.69 477.726 1106.33 483.347C1107.49 506.266 1106.49 553.46 1083.91 566.197L1080.85 568.173C1076.16 581.175 1066.49 584.875 1054.35 588.616C1052.91 586.689 1055.34 581.87 1056.18 579.098C1058.53 571.321 1060.51 563.854 1061.55 555.778C1064.06 550.513 1063.35 529.464 1064.82 523.027C1065.56 512.923 1064.8 497.804 1065.09 486.844L1064.89 479.651L1063.89 479.162C1062.26 476.764 1053.53 478.348 1048.47 477.195L1045.28 476.857C1044.6 470.406 1043.89 465.305 1042.74 458.921C1040.37 443.22 1036.07 427.87 1029.95 413.218C1029.18 411.826 1029.11 411.276 1028.65 409.771C1029.09 409.525 1029.52 409.278 1029.96 409.032L1030.5 408.751C1034.24 406.791 1043.79 409.246 1051.72 406.786L1052.32 404.882C1050.77 399.362 1049.18 401.028 1046.43 396.769Z"/><path fill="#BC6A13" d="M1046.43 396.769C1055.25 398.775 1051.01 404.814 1055.16 406.694C1054.49 409.074 1060.15 430.49 1060.9 435.292L1061.38 440.211C1062.39 442.995 1062.37 445.6 1062.58 448.571C1062.97 452.645 1063.3 457.58 1063.99 461.548C1064.23 465.917 1064.38 471.721 1064.97 475.942L1064.89 479.651L1063.89 479.162C1062.26 476.764 1053.53 478.348 1048.47 477.195L1045.28 476.857C1044.6 470.406 1043.89 465.305 1042.74 458.921C1040.37 443.22 1036.07 427.87 1029.95 413.218C1029.18 411.826 1029.11 411.276 1028.65 409.771C1029.09 409.525 1029.52 409.278 1029.96 409.032L1030.5 408.751C1034.24 406.791 1043.79 409.246 1051.72 406.786L1052.32 404.882C1050.77 399.362 1049.18 401.028 1046.43 396.769Z"/><path fill="#F6A61E" d="M1061.87 457.923C1061.86 454.537 1060.99 453.541 1061.35 449.38L1062.58 448.571C1062.97 452.645 1063.3 457.58 1063.99 461.548C1064.23 465.917 1064.38 471.721 1064.97 475.942L1064.89 479.651L1063.89 479.162C1062.26 476.764 1053.53 478.348 1048.47 477.195L1045.28 476.857C1044.6 470.406 1043.89 465.305 1042.74 458.921L1043.11 457.221C1046.31 455.344 1057.72 457.401 1061.87 457.923Z"/><path fill="#AE5219" d="M1061.87 457.923C1061.86 454.537 1060.99 453.541 1061.35 449.38L1062.58 448.571C1062.97 452.645 1063.3 457.58 1063.99 461.548C1064.23 465.917 1064.38 471.721 1064.97 475.942L1064.89 479.651L1063.89 479.162C1062.26 476.764 1053.53 478.348 1048.47 477.195C1053.18 476.675 1057.9 476.227 1062.63 475.851C1062.82 469.509 1062.95 464.224 1061.87 457.923Z"/><path fill="#643716" d="M1046.43 396.769C1055.25 398.775 1051.01 404.814 1055.16 406.694C1054.49 409.074 1060.15 430.49 1060.9 435.292L1061.38 440.211C1059.77 439.364 1055.69 415.367 1053.97 410.682C1047.12 410.15 1036.45 410.738 1029.95 413.218C1029.18 411.826 1029.11 411.276 1028.65 409.771C1029.09 409.525 1029.52 409.278 1029.96 409.032L1030.5 408.751C1034.24 406.791 1043.79 409.246 1051.72 406.786L1052.32 404.882C1050.77 399.362 1049.18 401.028 1046.43 396.769Z"/><path fill="#FEEE60" d="M1060.9 435.292C1060.15 430.49 1054.49 409.074 1055.16 406.694C1059.53 408.508 1064.18 410.549 1068.57 412.235C1072.98 414.571 1079.21 418.009 1081.02 423.171C1082.05 425.754 1083.04 428.323 1084.22 430.847C1086.11 439.913 1087.87 449.067 1088.75 458.299C1089.22 463.751 1089.8 469.442 1089.96 474.892C1083.03 474.706 1079.37 474.756 1072.34 475.809C1070.66 475.563 1066.83 475.855 1064.97 475.942C1064.38 471.721 1064.23 465.917 1063.99 461.548C1063.3 457.58 1062.97 452.645 1062.58 448.571C1062.37 445.6 1062.39 442.995 1061.38 440.211L1060.9 435.292Z"/><defs><linearGradient id="gradient_12" gradientUnits="userSpaceOnUse" x1="1065.881" y1="410.50424" x2="1070.118" y2="427.45059"><stop offset="0" stop-color="#FEB414"/><stop offset="1" stop-color="#FFD52B"/></linearGradient></defs><path fill="url(#gradient_12)" d="M1060.9 435.292C1060.15 430.49 1054.49 409.074 1055.16 406.694C1059.53 408.508 1064.18 410.549 1068.57 412.235C1072.98 414.571 1079.21 418.009 1081.02 423.171C1082.05 425.754 1083.04 428.323 1084.22 430.847C1079.27 430.838 1073.67 428.099 1068.42 429.589C1069.21 431.025 1071.02 431.316 1072.89 432.058C1069.22 432.042 1065.45 430.967 1062.73 432.026C1060.93 433.911 1061.49 432.843 1060.9 435.292Z"/><path fill="#FEFB7E" d="M1063.99 461.548C1069.63 463.617 1084.82 462.397 1088.75 458.299C1089.22 463.751 1089.8 469.442 1089.96 474.892C1083.03 474.706 1079.37 474.756 1072.34 475.809C1070.66 475.563 1066.83 475.855 1064.97 475.942C1064.38 471.721 1064.23 465.917 1063.99 461.548Z"/><path fill="#995719" d="M1064.82 523.027C1068.68 525.221 1081.67 520.49 1084.18 521.385C1089.83 526.826 1082.66 542.973 1085.67 547.561C1084.66 555.728 1081.6 562.647 1080.85 568.173C1076.16 581.175 1066.49 584.875 1054.35 588.616C1052.91 586.689 1055.34 581.87 1056.18 579.098C1058.53 571.321 1060.51 563.854 1061.55 555.778C1064.06 550.513 1063.35 529.464 1064.82 523.027Z"/><defs><linearGradient id="gradient_13" gradientUnits="userSpaceOnUse" x1="1073.2717" y1="513.48859" x2="1081.5098" y2="477.047"><stop offset="0" stop-color="#FD9E07"/><stop offset="1" stop-color="#FFE332"/></linearGradient></defs><path fill="url(#gradient_13)" d="M1072.34 475.809C1079.37 474.756 1083.03 474.706 1089.96 474.892L1090.4 480.761C1090.47 491.566 1089.5 505.075 1089.74 514.687C1089.5 517.741 1089.31 520.341 1088.82 523.374C1088.94 530.061 1086.85 540.91 1085.67 547.561C1082.66 542.973 1089.83 526.826 1084.18 521.385C1081.67 520.49 1068.68 525.221 1064.82 523.027C1065.56 512.923 1064.8 497.804 1065.09 486.844L1064.89 479.651L1064.97 475.942C1066.83 475.855 1070.66 475.563 1072.34 475.809Z"/><path fill="#D78110" d="M1065.09 486.844C1066.16 494.37 1065.78 507.419 1065.73 515.374C1073.45 513.69 1079.35 513.533 1087.1 513.774C1087.5 516.883 1087.79 520.45 1088.82 523.374C1088.94 530.061 1086.85 540.91 1085.67 547.561C1082.66 542.973 1089.83 526.826 1084.18 521.385C1081.67 520.49 1068.68 525.221 1064.82 523.027C1065.56 512.923 1064.8 497.804 1065.09 486.844Z"/><path fill="#FEC729" d="M1072.34 475.809C1079.37 474.756 1083.03 474.706 1089.96 474.892L1090.4 480.761C1083.58 479.31 1079.98 476.692 1072.34 475.809Z"/><path fill="#FEC729" d="M1081.02 423.171C1088.63 434.008 1093.74 431.213 1098.92 446.632C1101.18 452 1103.55 460.651 1103.99 466.543C1103.05 469.713 1103.61 472.666 1103.95 475.968C1103.54 477.184 1103.11 478.321 1102.66 479.516C1097.95 482.177 1095.07 480.583 1091.94 476.755C1092.6 486.068 1093.39 498.286 1092.76 507.603L1091.82 507.926C1090.47 510.085 1090.26 512.175 1089.74 514.687C1089.5 505.075 1090.47 491.566 1090.4 480.761L1089.96 474.892C1089.8 469.442 1089.22 463.751 1088.75 458.299C1087.87 449.067 1086.11 439.913 1084.22 430.847C1083.04 428.323 1082.05 425.754 1081.02 423.171Z"/><path fill="#BC6A13" d="M1081.02 423.171C1088.63 434.008 1093.74 431.213 1098.92 446.632C1092.77 439.485 1095.25 438.192 1086.12 430.707C1088.97 447.933 1089.98 459.71 1091.94 476.755C1092.6 486.068 1093.39 498.286 1092.76 507.603L1091.82 507.926C1090.47 510.085 1090.26 512.175 1089.74 514.687C1089.5 505.075 1090.47 491.566 1090.4 480.761L1089.96 474.892C1089.8 469.442 1089.22 463.751 1088.75 458.299C1087.87 449.067 1086.11 439.913 1084.22 430.847C1083.04 428.323 1082.05 425.754 1081.02 423.171Z"/><defs><linearGradient id="gradient_14" gradientUnits="userSpaceOnUse" x1="1096.8018" y1="515.61328" x2="1100.0144" y2="479.89355"><stop offset="0" stop-color="#EB8004"/><stop offset="1" stop-color="#FFC924"/></linearGradient></defs><path fill="url(#gradient_14)" d="M1091.94 476.755C1095.07 480.583 1097.95 482.177 1102.66 479.516C1103.11 478.321 1103.54 477.184 1103.95 475.968C1105.72 491.971 1106.63 509.439 1102.84 524.941C1102.45 526.537 1102.94 528.749 1101.93 530.138C1099.95 526.178 1104.69 519.028 1100.34 516.05C1097.83 516.076 1096.63 515.805 1094.66 517.288L1093.3 519.656L1093.32 519.629C1092.64 517.035 1092.81 510.546 1092.76 507.603C1093.39 498.286 1092.6 486.068 1091.94 476.755Z"/><path fill="#643716" d="M1091.82 507.926C1091.49 520.226 1092.12 529.881 1089.63 542.259C1088.73 546.733 1083.07 563.76 1083.91 566.197L1080.85 568.173C1081.6 562.647 1084.66 555.728 1085.67 547.561C1086.85 540.91 1088.94 530.061 1088.82 523.374C1089.31 520.341 1089.5 517.741 1089.74 514.687C1090.26 512.175 1090.47 510.085 1091.82 507.926Z"/><defs><linearGradient id="gradient_15" gradientUnits="userSpaceOnUse" x1="741.68256" y1="173.97545" x2="797.35364" y2="117.93425"><stop offset="0" stop-color="#E57D04"/><stop offset="1" stop-color="#FFC11E"/></linearGradient></defs><path fill="url(#gradient_15)" d="M756.025 100.775C763.237 99.9041 772.355 98.9308 779.347 101.348C791.286 104.298 800.578 111.685 806.825 122.264C808.746 125.567 810.271 129.084 811.368 132.743C814.109 140.609 813.826 150.601 811.253 158.45C803.843 174.636 797.034 180.567 780.165 187.257C780.746 191.888 781.324 197.927 782.136 202.416C782.931 208.784 783.935 215.732 784.356 222.076C780.215 216.804 781.313 192.205 778.161 189.935C776.453 194.221 776.091 193.982 771.297 194.901L769.071 195.343C766.722 200.172 765.169 215.517 765.25 221.154C753.134 220.878 741.961 223.792 730.307 224.509C709.296 226.849 688.579 231.334 668.481 237.894C654.769 241.941 645.234 247.492 632.891 252L632.599 250.867C667.412 233.055 712.339 223.542 751.268 221.629C751.832 211.84 753.85 196.696 755.408 186.99C736.646 181.343 724.09 168.828 722.292 148.877C721.686 142.404 722.463 135.877 724.572 129.728C727.744 120.64 735.386 110.41 744.102 106.119C747.365 103.646 752.106 102.209 756.025 100.775Z"/><path fill="#BC6A13" d="M744.102 106.119C748.865 107.712 749.256 103.779 752.581 105.3C750.955 107.187 742.925 111.108 742.367 115.739C737.968 152.206 771.524 159.214 797.438 160.352C799.23 166.117 787.617 173.217 783.948 176.714C760.83 180.912 739.448 175.839 729.572 152.372L729.058 153.391C729.501 156.169 730.226 157.183 731.521 159.643L731.027 160.649L728.862 160.547C726.803 156.921 724.659 151.958 722.292 148.877C721.686 142.404 722.463 135.877 724.572 129.728C727.744 120.64 735.386 110.41 744.102 106.119Z"/><path fill="#995719" d="M811.368 132.743C814.109 140.609 813.826 150.601 811.253 158.45C803.843 174.636 797.034 180.567 780.165 187.257C780.746 191.888 781.324 197.927 782.136 202.416C782.931 208.784 783.935 215.732 784.356 222.076C780.215 216.804 781.313 192.205 778.161 189.935C776.453 194.221 776.091 193.982 771.297 194.901L769.071 195.343C766.722 200.172 765.169 215.517 765.25 221.154C753.134 220.878 741.961 223.792 730.307 224.509C709.296 226.849 688.579 231.334 668.481 237.894C654.769 241.941 645.234 247.492 632.891 252L632.599 250.867C667.412 233.055 712.339 223.542 751.268 221.629C751.832 211.84 753.85 196.696 755.408 186.99C736.646 181.343 724.09 168.828 722.292 148.877C724.659 151.958 726.803 156.921 728.862 160.547C740.537 185.662 777.976 190.455 797.765 172.638C802.382 168.481 805.872 159.983 810.205 154.8C813.091 151.348 811.231 137.705 811.353 133.178L811.368 132.743Z"/><path fill="#D78110" d="M757.182 189L757.583 189.453C759.015 194.446 759.035 213.355 757.888 219.094C757.762 219.725 756.316 220.276 755.516 220.716L754.346 219.116C753.437 213.464 755.672 194.412 757.182 189Z"/><path fill="#D78110" d="M756.025 100.775C763.237 99.9041 772.355 98.9308 779.347 101.348C773.556 101.286 767.806 101.111 762.035 101.595C755.96 106.597 751.15 110.785 750.32 119.108C749.71 125.222 751.711 130.435 750.616 136.441L751.307 137.644L754.231 137.617L754.053 138.278L751.345 138.974C762.826 146.188 781.926 153.441 795.311 151.002C799.517 150.236 803.275 148.693 804.872 151.739C805.1 163.182 794.02 173.116 783.948 176.714C787.617 173.217 799.23 166.117 797.438 160.352C771.524 159.214 737.968 152.206 742.367 115.739C742.925 111.108 750.955 107.187 752.581 105.3C749.256 103.779 748.865 107.712 744.102 106.119C747.365 103.646 752.106 102.209 756.025 100.775Z"/><path fill="#FEFB7E" d="M802.947 130.867C793.687 151.922 761.972 133.61 769.76 115.122C772.363 108.941 782.691 105.222 788.799 108.382C795.767 111.188 797.156 112.679 802.259 118.269C803.021 123.185 803.63 125.86 802.947 130.867Z"/><path fill="#FEEE60" d="M783.211 120.687C780.729 117.766 778.466 115.329 780.248 111.609C783.384 109.142 784.778 109.491 788.799 108.382C795.767 111.188 797.156 112.679 802.259 118.269C803.021 123.185 803.63 125.86 802.947 130.867C795.537 131.371 785.156 129.971 783.487 121.168L783.211 120.687Z"/><path fill="#FFFEE8" d="M783.211 120.687C779.679 105.222 802.467 114.052 795.627 123.431L790.555 126.212L783.487 121.168L783.211 120.687Z"/><defs><linearGradient id="gradient_16" gradientUnits="userSpaceOnUse" x1="830.08606" y1="289.84634" x2="850.0163" y2="240.73849"><stop offset="0" stop-color="#F3950D"/><stop offset="1" stop-color="#FFE93B"/></linearGradient></defs><path fill="url(#gradient_16)" d="M765.25 221.154C765.169 215.517 766.722 200.172 769.071 195.343L771.297 194.901C776.091 193.982 776.453 194.221 778.161 189.935C781.313 192.205 780.215 216.804 784.356 222.076C795.76 222.045 808.389 223.742 819.642 225.555C871.868 233.747 920.99 255.642 962.001 289.009C963.941 290.762 965.893 292.502 967.859 294.227L970.339 299.495C971.832 301.237 972.957 302.634 974.313 304.485L974.022 305.145C969.844 302.253 967.204 297.715 963.394 295.727C960.962 296.646 961.472 296.072 960.061 297.883C960.819 302.418 982.138 318.321 980.465 320.794C974.577 316.182 964.443 305.357 957.387 299.37L951.3 307.361C950.255 306.27 949.157 305.232 948.009 304.25C935.857 293.759 918.271 283.697 903.982 276.391C847.512 247.517 796.648 241.673 734.506 246.518C728.967 244.561 725.269 247.187 722.195 245.717C721.154 242.246 723.343 235.803 726.201 233.477C726.626 233.131 728.558 234.068 729.875 232.892L722.638 232.792C725.02 230.724 726.755 230.169 729.923 230.48C732.097 230.245 737.932 229.689 739.472 228.727C743.743 226.06 741.949 226.417 747.142 225.008C743.113 224.544 734.762 224.597 730.307 224.509C741.961 223.792 753.134 220.878 765.25 221.154Z"/><path fill="#FEFB7E" d="M765.25 221.154C765.169 215.517 766.722 200.172 769.071 195.343L771.297 194.901C776.091 193.982 776.453 194.221 778.161 189.935C781.313 192.205 780.215 216.804 784.356 222.076C795.76 222.045 808.389 223.742 819.642 225.555C871.868 233.747 920.99 255.642 962.001 289.009C963.941 290.762 965.893 292.502 967.859 294.227L970.339 299.495L962.017 292.521C961.429 294.385 958.957 297.102 957.629 298.75C957.162 298.336 956.693 297.924 956.221 297.515C900.624 249.281 820.478 225.987 747.447 229.968C741.906 230.27 736.1 230.952 730.498 231.345L729.923 230.48C732.097 230.245 737.932 229.689 739.472 228.727C743.743 226.06 741.949 226.417 747.142 225.008C743.113 224.544 734.762 224.597 730.307 224.509C741.961 223.792 753.134 220.878 765.25 221.154Z"/><path fill="#F6A61E" d="M765.25 221.154C765.169 215.517 766.722 200.172 769.071 195.343L771.297 194.901C776.091 193.982 776.453 194.221 778.161 189.935C781.313 192.205 780.215 216.804 784.356 222.076C795.76 222.045 808.389 223.742 819.642 225.555C871.868 233.747 920.99 255.642 962.001 289.009C963.941 290.762 965.893 292.502 967.859 294.227L970.339 299.495L962.017 292.521C956.002 286.889 946.695 280.217 939.843 275.468C893.047 243.305 837.911 225.445 781.149 224.063C770.187 223.708 757.84 223.056 747.142 225.008C743.113 224.544 734.762 224.597 730.307 224.509C741.961 223.792 753.134 220.878 765.25 221.154Z"/><path fill="#FEEE60" d="M776.462 222.253C774.164 222.131 770.576 222.32 768.975 220.981C767.841 214.892 770.907 205.101 774.124 199.688C774.919 204.206 775.333 207.407 775.705 211.979L776.61 211.583L776.691 207.425L777.731 206.691C778.673 208.056 779.283 218.199 779.172 220.304C779.099 221.699 777.727 222.144 776.462 222.253Z"/><path fill="#FEC729" d="M775.705 211.979L776.61 211.583L776.691 207.425L777.731 206.691C778.673 208.056 779.283 218.199 779.172 220.304C779.099 221.699 777.727 222.144 776.462 222.253C776.283 218.797 775.82 215.613 775.705 211.979Z"/><defs><linearGradient id="gradient_17" gradientUnits="userSpaceOnUse" x1="670.92731" y1="289.01358" x2="635.8869" y2="247.7375"><stop offset="0" stop-color="#E6951A"/><stop offset="1" stop-color="#B0600B"/></linearGradient></defs><path fill="url(#gradient_17)" d="M668.481 237.894C688.579 231.334 709.296 226.849 730.307 224.509C734.762 224.597 743.113 224.544 747.142 225.008C741.949 226.417 743.743 226.06 739.472 228.727C737.932 229.689 732.097 230.245 729.923 230.48C726.755 230.169 725.02 230.724 722.638 232.792L729.875 232.892C728.558 234.068 726.626 233.131 726.201 233.477C723.343 235.803 721.154 242.246 722.195 245.717C725.269 247.187 728.967 244.561 734.506 246.518C699.157 249.166 657.952 261.701 626.898 278.427C627.45 280.683 627.563 280.932 629.308 282.456L629.392 282.953C629.551 283.852 629.74 284.703 629.933 285.596C621.531 290.154 593.056 305.592 588.239 311.89C585.448 310.634 584.685 308.378 583.486 305.759C582.14 303.545 580.542 301.456 579.01 299.359L578.049 296.896L576.711 296.506C575.827 294.931 574.25 292.667 573.223 291.084C570.775 293.58 565.456 299.623 562.27 299.933L561.815 298.313C577.815 281.791 611.693 260.253 632.599 250.867L632.891 252C645.234 247.492 654.769 241.941 668.481 237.894Z"/><path fill="#F6A61E" d="M668.481 237.894C688.579 231.334 709.296 226.849 730.307 224.509C734.762 224.597 743.113 224.544 747.142 225.008C741.949 226.417 743.743 226.06 739.472 228.727C737.932 229.689 732.097 230.245 729.923 230.48C726.755 230.169 725.02 230.724 722.638 232.792C721.673 233.501 688.69 239.309 682.947 240.941C653.96 249.362 626.345 261.936 600.959 278.271C595.469 282.88 581.48 291.617 578.049 296.896L576.711 296.506C575.827 294.931 574.25 292.667 573.223 291.084C570.775 293.58 565.456 299.623 562.27 299.933L561.815 298.313C577.815 281.791 611.693 260.253 632.599 250.867L632.891 252C645.234 247.492 654.769 241.941 668.481 237.894Z"/><path fill="#D78110" d="M668.481 237.894C664.52 242.198 644.466 247.465 637.189 251.809L638.792 252.893C635.295 258 633.43 254.749 630.434 257.094C620.807 264.627 610.117 269.09 599.951 276.15C600.183 277.67 599.914 276.96 600.959 278.271C595.469 282.88 581.48 291.617 578.049 296.896L576.711 296.506C575.827 294.931 574.25 292.667 573.223 291.084C570.775 293.58 565.456 299.623 562.27 299.933L561.815 298.313C577.815 281.791 611.693 260.253 632.599 250.867L632.891 252C645.234 247.492 654.769 241.941 668.481 237.894Z"/><path fill="#643716" d="M561.815 298.313C577.815 281.791 611.693 260.253 632.599 250.867L632.891 252C623.735 256.637 573.522 284.664 573.223 291.084C570.775 293.58 565.456 299.623 562.27 299.933L561.815 298.313Z"/><path fill="#643716" d="M583.486 305.759C594.535 296.621 613.733 284.779 626.898 278.427C627.45 280.683 627.563 280.932 629.308 282.456L629.392 282.953C629.551 283.852 629.74 284.703 629.933 285.596C621.531 290.154 593.056 305.592 588.239 311.89C585.448 310.634 584.685 308.378 583.486 305.759Z"/><path fill="#814F27" d="M967.859 294.227C973.843 298.921 993.629 317.243 997.431 323.188C1011.87 334.489 1038.92 378.996 1046.43 396.769C1049.18 401.028 1050.77 399.362 1052.32 404.882L1051.72 406.786C1043.79 409.246 1034.24 406.791 1030.5 408.751L1029.96 409.032C1029.52 409.278 1029.09 409.525 1028.65 409.771C1012.29 371.678 981.674 335.296 948.413 310.845L951.3 307.361L957.387 299.37C964.443 305.357 974.577 316.182 980.465 320.794C982.138 318.321 960.819 302.418 960.061 297.883C961.472 296.072 960.962 296.646 963.394 295.727C967.204 297.715 969.844 302.253 974.022 305.145L974.313 304.485C972.957 302.634 971.832 301.237 970.339 299.495L967.859 294.227Z"/><path fill="#F6A61E" d="M967.859 294.227C973.843 298.921 993.629 317.243 997.431 323.188C1011.87 334.489 1038.92 378.996 1046.43 396.769C1049.18 401.028 1050.77 399.362 1052.32 404.882C1050.19 406.011 1042.35 406.618 1039.71 406.187C1038.15 404.908 1038.24 404.977 1037.7 403.006C1025.59 373.011 1002.16 344.376 980.465 320.794C982.138 318.321 960.819 302.418 960.061 297.883C961.472 296.072 960.962 296.646 963.394 295.727C967.204 297.715 969.844 302.253 974.022 305.145L974.313 304.485C972.957 302.634 971.832 301.237 970.339 299.495L967.859 294.227Z"/><path fill="#995719" d="M997.431 323.188C1011.87 334.489 1038.92 378.996 1046.43 396.769C1049.18 401.028 1050.77 399.362 1052.32 404.882C1050.19 406.011 1042.35 406.618 1039.71 406.187C1038.15 404.908 1038.24 404.977 1037.7 403.006C1042.24 389.115 1017.23 359.11 1013.16 346.636C1010.21 337.628 998.016 327.045 997.431 323.188Z"/><defs><linearGradient id="gradient_18" gradientUnits="userSpaceOnUse" x1="822.3418" y1="231.97624" x2="754.46375" y2="353.52698"><stop offset="0" stop-color="#B86209"/><stop offset="1" stop-color="#6F3F10"/></linearGradient></defs><path fill="url(#gradient_18)" d="M734.506 246.518C796.648 241.673 847.512 247.517 903.982 276.391C918.271 283.697 935.857 293.759 948.009 304.25C949.157 305.232 950.255 306.27 951.3 307.361L948.413 310.845C934.988 300.6 913.04 288.086 897.938 281.607C895.299 279.191 878.948 273.279 875.001 271.902C839.225 259.412 801.486 253.497 763.605 254.441C758.285 254.542 748.493 254.544 743.711 255.76C701.657 258.839 668.367 266.948 629.933 285.596C629.74 284.703 629.551 283.852 629.392 282.953L629.308 282.456C627.563 280.932 627.45 280.683 626.898 278.427C657.952 261.701 699.157 249.166 734.506 246.518Z"/><path fill="#4A3225" d="M1045.28 476.857L1048.47 477.195C1053.53 478.348 1062.26 476.764 1063.89 479.162L1064.89 479.651L1065.09 486.844C1064.8 497.804 1065.56 512.923 1064.82 523.027C1063.35 529.464 1064.06 550.513 1061.55 555.778L1060.51 555.563C1059.64 557.167 1059.09 562.562 1058.63 564.299C1054.47 580.084 1052.26 598.356 1031.66 598.128C1029.39 598.103 1030.07 598.862 1028.34 597.414C1028.59 594.491 1033.78 585.925 1035.17 581.902C1043.82 556.766 1045.95 529.336 1046.38 503.006C1046.55 494.451 1045.82 485.433 1045.28 476.857Z"/><path fill="#995719" d="M1045.28 476.857L1048.47 477.195C1053.53 478.348 1062.26 476.764 1063.89 479.162C1063.64 486.933 1065.13 501.825 1063.69 508.551C1063.61 506.834 1063.51 505.118 1063.39 503.403C1062.07 502.632 1050.11 502.977 1047.77 502.992C1047.75 504.192 1047.85 510.041 1047.33 510.591L1046.38 503.006C1046.55 494.451 1045.82 485.433 1045.28 476.857Z"/><path fill="#2F1B10" d="M954.862 319.784L954.95 318.941C948.682 309.768 909.253 288.598 897.718 282.801L897.938 281.607C913.04 288.086 934.988 300.6 948.413 310.845C981.674 335.296 1012.29 371.678 1028.65 409.771C1029.11 411.276 1029.18 411.826 1029.95 413.218C1036.07 427.87 1040.37 443.22 1042.74 458.921C1043.89 465.305 1044.6 470.406 1045.28 476.857C1045.82 485.433 1046.55 494.451 1046.38 503.006C1045.95 529.336 1043.82 556.766 1035.17 581.902C1033.78 585.925 1028.59 594.491 1028.34 597.414C1030.07 598.862 1029.39 598.103 1031.66 598.128C1052.26 598.356 1054.47 580.084 1058.63 564.299C1059.09 562.562 1059.64 557.167 1060.51 555.563L1061.55 555.778C1060.51 563.854 1058.53 571.321 1056.18 579.098C1055.34 581.87 1052.91 586.689 1054.35 588.616C1051.32 589.858 1050.75 591.753 1048.65 594.83C1042.08 597.755 1038.9 598.597 1031.81 599.599C1030.37 599.803 1024.85 600.484 1023.75 600.962C1019.41 605.335 1014.33 616.995 1010.09 622.666C995.022 642.785 975.498 659.015 953.483 671.042C951.559 672.091 946.157 674.749 944.288 674.881C944.207 675.018 967.227 661.251 969.686 659.519C980.725 651.856 990.843 642.943 999.838 632.957C1033.53 594.846 1045 535.546 1041.97 486.009C1037.57 414.256 1007.47 366.4 954.862 319.784Z"/><path fill="#643716" d="M743.711 255.76C748.493 254.544 758.285 254.542 763.605 254.441C801.486 253.497 839.225 259.412 875.001 271.902C878.948 273.279 895.299 279.191 897.938 281.607L897.718 282.801C909.253 288.598 948.682 309.768 954.95 318.941L954.862 319.784C952.9 318.681 942.577 310.815 940.231 309.144C932.319 303.552 924.126 298.369 915.684 293.615C862.799 263.558 804.091 253.243 743.89 257.286L743.711 255.76Z"/><path fill="#251B17" d="M743.711 255.76L743.89 257.286C706.297 260.057 651.774 273.762 619.994 294.493C609.888 299.528 600.746 306.984 592.588 311.095C589.662 311.131 589.711 311.752 588.239 311.89C593.056 305.592 621.531 290.154 629.933 285.596C668.367 266.948 701.657 258.839 743.711 255.76Z"/><defs><linearGradient id="gradient_19" gradientUnits="userSpaceOnUse" x1="960.80725" y1="417.8746" x2="796.34741" y2="580.46027"><stop offset="0" stop-color="#ABA7A7"/><stop offset="1" stop-color="#EBE9E9"/></linearGradient></defs><path fill="url(#gradient_19)" d="M843.978 364.875C891.885 371.951 939.832 385.656 969.893 426.731C1011.8 483.99 1001.88 572.402 944.51 615.83C928.476 627.969 886.619 647.019 866.857 648.286L866.281 647.763C865.011 647.965 864.439 648.021 863.154 648.068L862.504 646.633C863.312 639.111 866.534 640.351 867.704 637.906C895.709 628.747 913.123 625.091 937.591 606.106C962.979 586.735 979.375 557.848 982.991 526.114C987.041 493.254 979.378 455.45 958.468 429.284C924.358 386.601 878.115 377.307 827.24 371.068L827.629 369.772C831.074 369.211 841.732 367.045 843.978 364.875Z"/><path fill="#E0DEDF" d="M766.036 648.028C770.401 647.291 800.013 647.04 806.436 646.654C829.38 645.274 845.484 642.066 867.704 637.906C866.534 640.351 863.312 639.111 862.504 646.633L863.154 648.068C864.439 648.021 865.011 647.965 866.281 647.763L866.857 648.286C863.921 649.424 863.234 649.56 860.161 650.063C855.58 650.868 848.825 651.836 844.601 653.311L844.256 654.272L845.038 655.339C827.49 660.064 766.736 662.792 748.528 661.354C751.315 658.084 761.792 648.422 766.036 648.028Z"/><path fill="#F7F6F6" d="M860.161 650.063C866.042 652.771 877.072 645.985 884.132 646.093C880.624 648.663 850.39 654.746 845.038 655.339L844.256 654.272L844.601 653.311C848.825 651.836 855.58 650.868 860.161 650.063Z"/></svg>